<?xml version="1.0" encoding="UTF-8"?>
<mxfile host="app.diagrams.net" modified="2023-10-25T12:00:00.000Z" agent="5.0 (Macintosh)" etag="abc123" version="15.8.6" type="device">
  <diagram id="aws-architecture" name="AWS Architecture">
    <mxGraphModel dx="1422" dy="762" grid="1" gridSize="10" guides="1" tooltips="1" connect="1" arrows="1" fold="1" page="1" pageScale="1" pageWidth="1100" pageHeight="850" math="0" shadow="0">
      <root>
        <mxCell id="0" />
        <mxCell id="1" parent="0" />
        
        <!-- Route 53 -->
        <mxCell id="route53" value="Route 53" style="outlineConnect=0;dashed=0;verticalLabelPosition=bottom;verticalAlign=top;align=center;html=1;shape=mxgraph.aws3.route_53;fillColor=#F58536;gradientColor=none;" vertex="1" parent="1">
          <mxGeometry x="120" y="120" width="76.5" height="93" as="geometry" />
        </mxCell>
        
        <!-- ACM Certificate -->
        <mxCell id="acm" value="ACM Certificate" style="outlineConnect=0;dashed=0;verticalLabelPosition=bottom;verticalAlign=top;align=center;html=1;shape=mxgraph.aws3.certificate_manager;fillColor=#759C3E;gradientColor=none;" vertex="1" parent="1">
          <mxGeometry x="120" y="300" width="76.5" height="93" as="geometry" />
        </mxCell>
        
        <!-- Application Load Balancer -->
        <mxCell id="alb" value="Application Load Balancer" style="outlineConnect=0;dashed=0;verticalLabelPosition=bottom;verticalAlign=top;align=center;html=1;shape=mxgraph.aws3.application_load_balancer;fillColor=#F58534;gradientColor=none;" vertex="1" parent="1">
          <mxGeometry x="300" y="120" width="76.5" height="93" as="geometry" />
        </mxCell>
        
        <!-- ECS Cluster -->
        <mxCell id="ecs_cluster" value="ECS Cluster" style="outlineConnect=0;dashed=0;verticalLabelPosition=bottom;verticalAlign=top;align=center;html=1;shape=mxgraph.aws3.ecs;fillColor=#F58534;gradientColor=none;" vertex="1" parent="1">
          <mxGeometry x="500" y="120" width="76.5" height="93" as="geometry" />
        </mxCell>
        
        <!-- ECS Service -->
        <mxCell id="ecs_service" value="ECS Service" style="outlineConnect=0;dashed=0;verticalLabelPosition=bottom;verticalAlign=top;align=center;html=1;shape=mxgraph.aws3.ecs;fillColor=#F58534;gradientColor=none;" vertex="1" parent="1">
          <mxGeometry x="500" y="300" width="76.5" height="93" as="geometry" />
        </mxCell>
        
        <!-- Container -->
        <mxCell id="container" value="Container" style="outlineConnect=0;dashed=0;verticalLabelPosition=bottom;verticalAlign=top;align=center;html=1;shape=mxgraph.aws3.container_1;fillColor=#F58534;gradientColor=none;" vertex="1" parent="1">
          <mxGeometry x="500" y="480" width="76.5" height="93" as="geometry" />
        </mxCell>
        
        <!-- ECR Repository -->
        <mxCell id="ecr" value="ECR Repository" style="outlineConnect=0;dashed=0;verticalLabelPosition=bottom;verticalAlign=top;align=center;html=1;shape=mxgraph.aws3.ecr;fillColor=#F58534;gradientColor=none;" vertex="1" parent="1">
          <mxGeometry x="700" y="480" width="76.5" height="93" as="geometry" />
        </mxCell>
        
        <!-- Cognito User Pool -->
        <mxCell id="cognito" value="Cognito User Pool" style="outlineConnect=0;dashed=0;verticalLabelPosition=bottom;verticalAlign=top;align=center;html=1;shape=mxgraph.aws3.cognito;fillColor=#AD688B;gradientColor=none;" vertex="1" parent="1">
          <mxGeometry x="700" y="120" width="76.5" height="93" as="geometry" />
        </mxCell>
        
        <!-- Bedrock -->
        <mxCell id="bedrock" value="Amazon Bedrock" style="outlineConnect=0;dashed=0;verticalLabelPosition=bottom;verticalAlign=top;align=center;html=1;shape=mxgraph.aws3.sagemaker;fillColor=#01A88D;gradientColor=none;" vertex="1" parent="1">
          <mxGeometry x="700" y="300" width="76.5" height="93" as="geometry" />
        </mxCell>
        
        <!-- VPC -->
        <mxCell id="vpc" value="VPC" style="outlineConnect=0;dashed=0;verticalLabelPosition=bottom;verticalAlign=top;align=center;html=1;shape=mxgraph.aws3.vpc;fillColor=#F58534;gradientColor=none;" vertex="1" parent="1">
          <mxGeometry x="300" y="480" width="76.5" height="93" as="geometry" />
        </mxCell>
        
        <!-- CloudWatch Logs -->
        <mxCell id="logs" value="CloudWatch Logs" style="outlineConnect=0;dashed=0;verticalLabelPosition=bottom;verticalAlign=top;align=center;html=1;shape=mxgraph.aws3.cloudwatch;fillColor=#759C3E;gradientColor=none;" vertex="1" parent="1">
          <mxGeometry x="900" y="300" width="76.5" height="93" as="geometry" />
        </mxCell>
        
        <!-- IAM Roles -->
        <mxCell id="iam" value="IAM Roles" style="outlineConnect=0;dashed=0;verticalLabelPosition=bottom;verticalAlign=top;align=center;html=1;shape=mxgraph.aws3.iam;fillColor=#759C3E;gradientColor=none;" vertex="1" parent="1">
          <mxGeometry x="900" y="120" width="76.5" height="93" as="geometry" />
        </mxCell>
        
        <!-- Connections -->
        <!-- Route53 to ALB -->
        <mxCell id="route53_to_alb" value="" style="endArrow=classic;html=1;rounded=0;exitX=1;exitY=0.5;exitDx=0;exitDy=0;exitPerimeter=0;entryX=0;entryY=0.5;entryDx=0;entryDy=0;entryPerimeter=0;" edge="1" parent="1" source="route53" target="alb">
          <mxGeometry width="50" height="50" relative="1" as="geometry">
            <mxPoint x="520" y="410" as="sourcePoint" />
            <mxPoint x="570" y="360" as="targetPoint" />
          </mxGeometry>
        </mxCell>
        
        <!-- ACM to ALB -->
        <mxCell id="acm_to_alb" value="" style="endArrow=classic;html=1;rounded=0;exitX=0.5;exitY=0;exitDx=0;exitDy=0;exitPerimeter=0;entryX=0.5;entryY=1;entryDx=0;entryDy=0;entryPerimeter=0;" edge="1" parent="1" source="acm" target="alb">
          <mxGeometry width="50" height="50" relative="1" as="geometry">
            <mxPoint x="520" y="410" as="sourcePoint" />
            <mxPoint x="570" y="360" as="targetPoint" />
            <Array as="points">
              <mxPoint x="158" y="250" />
              <mxPoint x="338" y="250" />
            </Array>
          </mxGeometry>
        </mxCell>
        
        <!-- ALB to ECS Cluster -->
        <mxCell id="alb_to_ecs" value="" style="endArrow=classic;html=1;rounded=0;exitX=1;exitY=0.5;exitDx=0;exitDy=0;exitPerimeter=0;entryX=0;entryY=0.5;entryDx=0;entryDy=0;entryPerimeter=0;" edge="1" parent="1" source="alb" target="ecs_cluster">
          <mxGeometry width="50" height="50" relative="1" as="geometry">
            <mxPoint x="520" y="410" as="sourcePoint" />
            <mxPoint x="570" y="360" as="targetPoint" />
          </mxGeometry>
        </mxCell>
        
        <!-- ECS Cluster to ECS Service -->
        <mxCell id="cluster_to_service" value="" style="endArrow=classic;html=1;rounded=0;exitX=0.5;exitY=1;exitDx=0;exitDy=0;exitPerimeter=0;entryX=0.5;entryY=0;entryDx=0;entryDy=0;entryPerimeter=0;" edge="1" parent="1" source="ecs_cluster" target="ecs_service">
          <mxGeometry width="50" height="50" relative="1" as="geometry">
            <mxPoint x="520" y="410" as="sourcePoint" />
            <mxPoint x="570" y="360" as="targetPoint" />
          </mxGeometry>
        </mxCell>
        
        <!-- ECS Service to Container -->
        <mxCell id="service_to_container" value="" style="endArrow=classic;html=1;rounded=0;exitX=0.5;exitY=1;exitDx=0;exitDy=0;exitPerimeter=0;entryX=0.5;entryY=0;entryDx=0;entryDy=0;entryPerimeter=0;" edge="1" parent="1" source="ecs_service" target="container">
          <mxGeometry width="50" height="50" relative="1" as="geometry">
            <mxPoint x="520" y="410" as="sourcePoint" />
            <mxPoint x="570" y="360" as="targetPoint" />
          </mxGeometry>
        </mxCell>
        
        <!-- ECR to Container -->
        <mxCell id="ecr_to_container" value="" style="endArrow=classic;html=1;rounded=0;exitX=0;exitY=0.5;exitDx=0;exitDy=0;exitPerimeter=0;entryX=1;entryY=0.5;entryDx=0;entryDy=0;entryPerimeter=0;" edge="1" parent="1" source="ecr" target="container">
          <mxGeometry width="50" height="50" relative="1" as="geometry">
            <mxPoint x="520" y="410" as="sourcePoint" />
            <mxPoint x="570" y="360" as="targetPoint" />
          </mxGeometry>
        </mxCell>
        
        <!-- Container to Cognito -->
        <mxCell id="container_to_cognito" value="" style="endArrow=classic;html=1;rounded=0;exitX=0.75;exitY=0;exitDx=0;exitDy=0;exitPerimeter=0;entryX=0.5;entryY=1;entryDx=0;entryDy=0;entryPerimeter=0;" edge="1" parent="1" source="container" target="cognito">
          <mxGeometry width="50" height="50" relative="1" as="geometry">
            <mxPoint x="520" y="410" as="sourcePoint" />
            <mxPoint x="570" y="360" as="targetPoint" />
            <Array as="points">
              <mxPoint x="557" y="400" />
              <mxPoint x="738" y="400" />
            </Array>
          </mxGeometry>
        </mxCell>
        
        <!-- Container to Bedrock -->
        <mxCell id="container_to_bedrock" value="" style="endArrow=classic;html=1;rounded=0;exitX=1;exitY=0.25;exitDx=0;exitDy=0;exitPerimeter=0;entryX=0;entryY=0.75;entryDx=0;entryDy=0;entryPerimeter=0;" edge="1" parent="1" source="container" target="bedrock">
          <mxGeometry width="50" height="50" relative="1" as="geometry">
            <mxPoint x="520" y="410" as="sourcePoint" />
            <mxPoint x="570" y="360" as="targetPoint" />
            <Array as="points">
              <mxPoint x="650" y="503" />
              <mxPoint x="650" y="370" />
            </Array>
          </mxGeometry>
        </mxCell>
        
        <!-- Container to VPC -->
        <mxCell id="container_to_vpc" value="" style="endArrow=classic;html=1;rounded=0;exitX=0;exitY=0.5;exitDx=0;exitDy=0;exitPerimeter=0;entryX=1;entryY=0.5;entryDx=0;entryDy=0;entryPerimeter=0;" edge="1" parent="1" source="container" target="vpc">
          <mxGeometry width="50" height="50" relative="1" as="geometry">
            <mxPoint x="520" y="410" as="sourcePoint" />
            <mxPoint x="570" y="360" as="targetPoint" />
          </mxGeometry>
        </mxCell>
        
        <!-- Container to CloudWatch -->
        <mxCell id="container_to_logs" value="" style="endArrow=classic;html=1;rounded=0;exitX=1;exitY=0.75;exitDx=0;exitDy=0;exitPerimeter=0;entryX=0;entryY=0.5;entryDx=0;entryDy=0;entryPerimeter=0;" edge="1" parent="1" source="container" target="logs">
          <mxGeometry width="50" height="50" relative="1" as="geometry">
            <mxPoint x="520" y="410" as="sourcePoint" />
            <mxPoint x="570" y="360" as="targetPoint" />
            <Array as="points">
              <mxPoint x="800" y="550" />
              <mxPoint x="800" y="347" />
            </Array>
          </mxGeometry>
        </mxCell>
        
        <!-- IAM to ECS Service -->
        <mxCell id="iam_to_ecs" value="" style="endArrow=classic;html=1;rounded=0;exitX=0;exitY=0.5;exitDx=0;exitDy=0;exitPerimeter=0;entryX=1;entryY=0.25;entryDx=0;entryDy=0;entryPerimeter=0;" edge="1" parent="1" source="iam" target="ecs_service">
          <mxGeometry width="50" height="50" relative="1" as="geometry">
            <mxPoint x="520" y="410" as="sourcePoint" />
            <mxPoint x="570" y="360" as="targetPoint" />
            <Array as="points">
              <mxPoint x="800" y="167" />
              <mxPoint x="800" y="323" />
            </Array>
          </mxGeometry>
        </mxCell>
        
        <!-- Title -->
        <mxCell id="title" value="AWS Architecture - Image and Video Processing Application" style="text;html=1;strokeColor=none;fillColor=none;align=center;verticalAlign=middle;whiteSpace=wrap;rounded=0;fontSize=20;fontStyle=1" vertex="1" parent="1">
          <mxGeometry x="250" y="40" width="600" height="30" as="geometry" />
        </mxCell>
        
        <!-- Legend -->
        <mxCell id="legend_title" value="Legend" style="text;html=1;strokeColor=none;fillColor=none;align=left;verticalAlign=middle;whiteSpace=wrap;rounded=0;fontSize=16;fontStyle=1" vertex="1" parent="1">
          <mxGeometry x="120" y="600" width="100" height="30" as="geometry" />
        </mxCell>
        
        <mxCell id="legend_1" value="- Route 53: DNS service for domain routing" style="text;html=1;strokeColor=none;fillColor=none;align=left;verticalAlign=middle;whiteSpace=wrap;rounded=0;" vertex="1" parent="1">
          <mxGeometry x="120" y="630" width="300" height="20" as="geometry" />
        </mxCell>
        
        <mxCell id="legend_2" value="- ACM: SSL/TLS certificate for secure connections" style="text;html=1;strokeColor=none;fillColor=none;align=left;verticalAlign=middle;whiteSpace=wrap;rounded=0;" vertex="1" parent="1">
          <mxGeometry x="120" y="650" width="300" height="20" as="geometry" />
        </mxCell>
        
        <mxCell id="legend_3" value="- ALB: Application Load Balancer for traffic distribution" style="text;html=1;strokeColor=none;fillColor=none;align=left;verticalAlign=middle;whiteSpace=wrap;rounded=0;" vertex="1" parent="1">
          <mxGeometry x="120" y="670" width="300" height="20" as="geometry" />
        </mxCell>
        
        <mxCell id="legend_4" value="- ECS: Container orchestration service" style="text;html=1;strokeColor=none;fillColor=none;align=left;verticalAlign=middle;whiteSpace=wrap;rounded=0;" vertex="1" parent="1">
          <mxGeometry x="120" y="690" width="300" height="20" as="geometry" />
        </mxCell>
        
        <mxCell id="legend_5" value="- Cognito: User authentication and authorization" style="text;html=1;strokeColor=none;fillColor=none;align=left;verticalAlign=middle;whiteSpace=wrap;rounded=0;" vertex="1" parent="1">
          <mxGeometry x="120" y="710" width="300" height="20" as="geometry" />
        </mxCell>
        
        <mxCell id="legend_6" value="- Bedrock: AI foundation model service" style="text;html=1;strokeColor=none;fillColor=none;align=left;verticalAlign=middle;whiteSpace=wrap;rounded=0;" vertex="1" parent="1">
          <mxGeometry x="120" y="730" width="300" height="20" as="geometry" />
        </mxCell>
        
        <mxCell id="legend_7" value="- IAM: Identity and Access Management for permissions" style="text;html=1;strokeColor=none;fillColor=none;align=left;verticalAlign=middle;whiteSpace=wrap;rounded=0;" vertex="1" parent="1">
          <mxGeometry x="450" y="630" width="300" height="20" as="geometry" />
        </mxCell>
        
        <mxCell id="legend_8" value="- CloudWatch: Monitoring and logging service" style="text;html=1;strokeColor=none;fillColor=none;align=left;verticalAlign=middle;whiteSpace=wrap;rounded=0;" vertex="1" parent="1">
          <mxGeometry x="450" y="650" width="300" height="20" as="geometry" />
        </mxCell>
        
        <mxCell id="legend_9" value="- ECR: Elastic Container Registry for Docker images" style="text;html=1;strokeColor=none;fillColor=none;align=left;verticalAlign=middle;whiteSpace=wrap;rounded=0;" vertex="1" parent="1">
          <mxGeometry x="450" y="670" width="300" height="20" as="geometry" />
        </mxCell>
        
        <mxCell id="legend_10" value="- VPC: Virtual Private Cloud for network isolation" style="text;html=1;strokeColor=none;fillColor=none;align=left;verticalAlign=middle;whiteSpace=wrap;rounded=0;" vertex="1" parent="1">
          <mxGeometry x="450" y="690" width="300" height="20" as="geometry" />
        </mxCell>
        
      </root>
    </mxGraphModel>
  </diagram>
</mxfile>